<svg
    viewbox="0 0 25 25"
    xmlns="http://www.w3.org/2000/svg"
    xmlns:xlink="http://www.w3.org/1999/xlink"
    overflow="visible"
    preserveAspectRatio="xMaxYMax meet">

    <defs>
        <clipPath id="clip0">
            <rect x="908" y="55" width="25" height="25"/>
        </clipPath>
    </defs>
    
    <g clip-path="url(#clip0)" transform="translate(-908 -55)">
        <path
            d="M931.399 76.1715C929.577 75.2706 926.843 72.977 926.585 64.4702 926.491 61.3428 924.527 59.998 922.883 59.423 922.945 59.2154 922.975 59.0002 922.974 58.7841 922.974 57.5226 921.938 56.5001 920.661 56.5001 919.383 56.5001 918.348 57.5226 918.348 58.7841 918.346 59.0002 918.377 59.2154 918.438 59.423 916.795 59.998 914.831 61.3396 914.737 64.4702 914.478 72.9674 911.744 75.2674 909.923 76.1682 909.182 76.5324 909.554 77.3885 909.984 77.3885L918.234 77.3885C918.373 78.7117 919.572 79.6734 920.912 79.5366 922.06 79.4193 922.968 78.5227 923.087 77.3885L931.337 77.3885C931.768 77.3885 932.14 76.5356 931.399 76.1715ZM919.642 58.8001C919.642 58.2443 920.098 57.7938 920.661 57.7938 921.224 57.7938 921.68 58.2443 921.68 58.8001 921.678 58.9009 921.662 59.001 921.631 59.0971 921.311 59.0358 920.987 58.9995 920.661 58.9885L920.661 58.9885C920.335 59.0015 920.011 59.0378 919.69 59.0971 919.659 59.0011 919.642 58.9009 919.642 58.8001Z"
            stroke="#FFFFFF"
            stroke-miterlimit="8"
            fill="#FFFFFF"
            fill-rule="evenodd"/>
    </g>
</svg>