<svg
    viewbox="0 0 25 25"
    xmlns="http://www.w3.org/2000/svg"
    xmlns:xlink="http://www.w3.org/1999/xlink"
    overflow="visible"
    preserveAspectRatio="xMaxYMax meet">
    
    <defs>
        <clipPath id="clip0">
            <rect x="890" y="59" width="25" height="25"/>
        </clipPath>
    </defs>
    
    <g clip-path="url(#clip0)" transform="translate(-890 -59)">
        <path
            d="M903 76.0589C900.768 76.0589 898.941 74.2324 898.941 72.0001 898.941 69.7677 900.768 67.9412 903 67.9412 905.232 67.9412 907.059 69.7677 907.059 72.0001 907.059 74.2324 905.232 76.0589 903 76.0589ZM912.132 69.4633C911.929 68.7192 911.625 68.0089 911.253 67.3662L912.099 64.8295 910.171 62.9015 907.634 63.7471C906.957 63.3751 906.247 63.0706 905.503 62.8677L904.353 60.5001 901.647 60.5001 900.463 62.8677C899.719 63.0706 899.009 63.3751 898.366 63.7471L895.829 62.9015 893.902 64.8295 894.747 67.3662C894.375 68.0427 894.071 68.753 893.868 69.4971L891.5 70.6471 891.5 73.353 893.868 74.5368C894.071 75.281 894.375 75.9912 894.747 76.6339L893.902 79.1706 895.829 81.0986 898.366 80.253C899.043 80.6251 899.753 80.9295 900.497 81.1324L901.681 83.5001 904.387 83.5001 905.571 81.1324C906.315 80.9295 907.025 80.6251 907.668 80.253L910.204 81.0986 912.132 79.1706 911.287 76.6339C911.659 75.9574 911.963 75.2471 912.166 74.503L914.534 73.3192 914.534 70.6133 912.132 69.4633Z"
            stroke="#FFFFFF"
            stroke-miterlimit="8"
            fill="#FFFFFF"
            fill-rule="evenodd"/>
    </g>
</svg>