<svg width="57" height="57" xmlns="http://www.w3.org/2000/svg" xmlns:xlink="http://www.w3.org/1999/xlink" overflow="visible" preserveAspectRatio="xMaxYMax meet">
    <defs>
        <clipPath id="clip0">
            <rect x="28" y="470" width="57" height="57" />
        </clipPath>
    </defs>
    <g clip-path="url(#clip0)" transform="translate(-28 -470)">
        <path d="M81.1267 499.778C78.5075 497.171 75.4793 499.611 75.4793 499.611L75.4793 485.884C75.4793 485.423 75.1058 485.049 74.6448 485.049 74.1835 485.049 73.8098 485.423 73.8098 485.884L73.8098 500.786C73.8098 500.786 69.8286 503.924 68.1174 504.691L68.1174 479.976C68.1174 478.827 69.0519 477.892 70.2008 477.892L71.7264 477.892C72.8754 477.892 73.8098 478.827 73.8098 479.976L73.8098 482.466C73.8098 482.928 74.1835 483.301 74.6448 483.301 75.1058 483.301 75.4793 482.928 75.4793 482.466L75.4793 479.976C75.4793 477.906 73.7959 476.223 71.7264 476.223L70.2008 476.223C68.1312 476.223 66.4474 477.906 66.4474 479.976L66.4474 505.353C65.9495 505.493 65.4385 505.588 64.9192 505.638L64.9192 488.035C64.9192 485.955 63.2271 484.263 61.1475 484.263L59.659 484.263C57.5793 484.263 55.8872 485.955 55.8872 488.035L55.8872 496.542 54.3587 497.354 54.3587 494.523C54.3587 492.65 52.8353 491.127 50.9632 491.127L48.7227 491.127C46.85 491.127 45.3272 492.65 45.3272 494.523L45.3272 502.148 42.6008 503.595 34.9453 505.783C33.6132 506.163 32.5008 507.036 31.8137 508.238 31.1262 509.442 30.9396 510.843 31.2884 512.184L32.1447 515.478C32.2603 515.924 32.7161 516.192 33.1627 516.076 33.6089 515.96 33.8768 515.504 33.7607 515.058L32.9044 511.764C32.4078 509.853 33.5058 507.93 35.4045 507.388L42.4039 505.388 47.6646 519.428C48.0169 520.368 47.9612 523.051 45.1784 524.039L39.889 525.241C38.0455 525.659 36.229 524.554 35.7533 522.724L34.6796 518.592C34.5634 518.146 34.1077 517.878 33.6615 517.994 33.2149 518.11 32.9474 518.566 33.0631 519.013L34.1373 523.145C34.7409 525.466 36.8031 527 39.0988 527 40.7857 527 45.5485 525.667 45.5485 525.667 46.9979 525.339 48.2338 524.399 48.9388 523.091 49.5207 522.012 49.6932 520.77 49.4436 519.586L67.7433 515.106C69.2567 514.735 70.6935 514.017 71.8973 513.027L80.8027 505.71C83.5177 503.302 81.9252 500.573 81.1267 499.778ZM59.659 485.933 61.1475 485.933C62.3065 485.933 63.2493 486.876 63.2493 488.035L63.2493 505.68 57.9808 505.677C57.4967 505.673 57.8316 505.353 57.8581 505.332L59.3754 504.103C60.7909 502.956 61.7155 501.362 62.123 499.363 62.3817 498.096 61.8981 496.827 60.8619 496.052 59.8937 495.328 58.6488 495.189 57.5572 495.667L57.5572 488.035C57.5572 486.876 58.5 485.933 59.659 485.933ZM46.9971 494.523C46.9971 493.571 47.7712 492.797 48.7227 492.797L50.9632 492.797C51.9146 492.797 52.6892 493.571 52.6892 494.523L52.6892 498.24 46.9966 501.262 46.9966 494.523ZM79.7429 504.42 70.837 511.737C69.8255 512.569 68.6184 513.173 67.3463 513.484L48.9118 517.998 43.9543 504.768 58.1095 497.254C58.6848 496.948 59.3402 496.999 59.8616 497.389 60.383 497.779 60.6169 498.392 60.4869 499.03 60.1586 500.638 59.4311 501.909 58.3243 502.805L56.807 504.034C56.1852 504.538 55.9559 505.351 56.223 506.105 56.49 506.859 57.1797 507.347 57.9799 507.347L64.0635 507.35 64.0677 507.35C66.2335 507.35 68.3148 506.692 70.0865 505.446L76.8853 500.665C77.8373 499.995 79.1189 500.113 79.932 500.945 80.4005 501.424 81.3172 502.845 79.7429 504.42Z" stroke="#3494BA" stroke-width="0.111297" fill="#4A7090" />
        <path d="M44.4669 519.963C44.4669 518.149 42.9914 516.673 41.1775 516.673 39.3636 516.673 37.8881 518.149 37.8881 519.963 37.8881 521.777 39.3636 523.253 41.1775 523.253 42.9914 523.253 44.4669 521.777 44.4669 519.963ZM39.558 519.963C39.558 519.07 40.2843 518.343 41.1775 518.343 42.0703 518.343 42.797 519.07 42.797 519.963 42.797 520.856 42.0708 521.583 41.1775 521.583 40.2843 521.583 39.558 520.856 39.558 519.963Z" stroke="#3494BA" stroke-width="0.111297" fill="#4A7090" />
        <path d="M35.1731 496.216 47.3106 483.985 50.0407 485.397C51.0188 485.903 52.2091 485.73 53.0023 484.966L59.609 478.606C59.609 478.606 59.4272 481.873 62.1778 481.873 63.5938 481.873 64.7461 480.72 64.7461 479.304L64.7461 472.568C64.7461 472.561 64.7457 472.552 64.7457 472.544 64.7365 470.787 63.4515 470 62.1778 470L55.501 470C54.0847 470 52.9327 471.152 52.9327 472.568 52.9327 475.392 55.806 475.137 55.806 475.137L50.7657 479.988 47.9959 478.556C46.9944 478.037 45.7876 478.227 44.9927 479.028L31.5271 492.597C30.5295 493.603 30.5356 495.232 31.541 496.23 32.0255 496.71 33.6798 497.709 35.1731 496.216ZM32.7122 493.773 46.1777 480.204C46.3517 480.029 46.6309 479.723 47.2289 480.039L50.53 481.747C50.8478 481.911 51.2349 481.855 51.4928 481.606L58.456 474.904C58.7013 474.668 58.7788 474.306 58.6513 473.99 58.524 473.674 58.2178 473.467 57.8768 473.467L55.501 473.467C55.0057 473.467 54.6026 473.064 54.6026 472.568 54.6026 472.073 55.0057 471.67 55.501 471.67L62.1778 471.67C62.4235 471.67 63.0757 471.67 63.0757 472.563 63.0757 472.571 63.0762 472.578 63.0762 472.586L63.0762 479.304C63.0762 479.799 62.6731 480.202 62.1778 480.202 61.682 480.202 61.2789 479.799 61.2789 479.304L61.2789 476.644C61.2789 476.309 61.0788 476.006 60.7709 475.875 60.4631 475.744 60.1065 475.81 59.865 476.042L51.8442 483.763C51.5668 484.03 51.1501 484.091 50.8083 483.914L47.5337 482.22C47.2097 482.053 46.8144 482.115 46.5573 482.374L33.9881 495.039C33.4402 495.587 32.8866 495.213 32.717 495.044 32.3656 494.695 32.3634 494.125 32.7122 493.773Z" stroke="#3494BA" stroke-width="0.111297" fill="#4A7090" />
    </g>
</svg>