<svg width="57" height="58" xmlns="http://www.w3.org/2000/svg" xmlns:xlink="http://www.w3.org/1999/xlink" overflow="visible" preserveAspectRatio="xMaxYMax meet">
    <defs>
        <clipPath id="clip0">
            <rect x="27" y="534" width="57" height="58"/>
        </clipPath>
    </defs>
    <g clip-path="url(#clip0)" transform="translate(-27 -534)">
        <path d="M54.4999 23.7576 36.6581 5.91579 29.1457 13.4281 15.717 0 14.4025 1.31457 29.1457 16.0578 36.6581 8.5454 53.1854 25.0727 49.8047 25.0727 49.8047 26.9508 56.378 26.9508 56.378 20.3775 54.4999 20.3775Z" stroke="#3494BA" stroke-width="0.117385" fill="#4A7090" transform="matrix(1 0 0 1.01754 27.27 534)"/>
        <path d="M8.48671 3.47465C3.79149 3.47465 0.0353058 7.23083 0.0353058 11.9261 0.0353058 14.0857 0.880354 16.1518 2.38292 17.7478 0.880354 18.4054 0.0353058 19.3444 0.0353058 20.3775L0.0353058 53.2441C0.0353058 55.6851 4.26101 57.0002 8.48671 57.0002 12.7124 57.0002 16.9381 55.6851 16.9381 53.2441L16.9381 20.3775C16.9381 19.3444 16.0931 18.4054 14.5905 17.7478 17.7832 14.3671 17.6891 9.01492 14.3085 5.82226 12.7124 4.3197 10.6463 3.47465 8.48671 3.47465ZM8.48671 5.35274C12.1489 5.35274 15.06 8.2634 15.06 11.9261 15.06 15.5883 12.1489 18.4994 8.48671 18.4994 4.82453 18.4994 1.9134 15.5883 1.9134 11.9261 1.9134 8.2634 4.82453 5.35274 8.48671 5.35274ZM8.48671 55.1221C4.26101 55.1221 1.9134 53.807 1.9134 53.2441L1.9134 50.9899C3.97901 51.9289 6.2331 52.3984 8.48671 52.305 10.7403 52.3984 12.9939 51.9289 15.06 50.9899L15.06 53.2441C15.06 53.807 12.7124 55.1221 8.48671 55.1221ZM8.48671 50.4269C4.26101 50.4269 1.9134 49.1118 1.9134 48.5488L1.9134 46.2947C3.97901 47.2337 6.2331 47.7032 8.48671 47.6098 10.7403 47.7032 12.9939 47.2337 15.06 46.2947L15.06 48.5488C15.06 49.1118 12.7124 50.4269 8.48671 50.4269ZM8.48671 45.7317C4.26101 45.7317 1.9134 44.4166 1.9134 43.8536L1.9134 41.5994C3.97901 42.5385 6.2331 43.008 8.48671 42.9146 10.7403 43.008 12.9939 42.5385 15.06 41.5994L15.06 43.8536C15.06 44.4166 12.7124 45.7317 8.48671 45.7317ZM8.48671 41.0365C4.26101 41.0365 1.9134 39.7213 1.9134 39.1584L1.9134 36.9042C3.97901 37.8433 6.2331 38.3128 8.48671 38.2193 10.7403 38.3128 12.9939 37.8433 15.06 36.9042L15.06 39.1584C15.06 39.7213 12.7124 41.0365 8.48671 41.0365ZM8.48671 36.3413C4.26101 36.3413 1.9134 35.0261 1.9134 34.4632L1.9134 32.209C3.97901 33.148 6.2331 33.6176 8.48671 33.5241 10.7403 33.6176 12.9939 33.148 15.06 32.209L15.06 34.4632C15.06 35.0261 12.7124 36.3413 8.48671 36.3413ZM8.48671 31.646C4.26101 31.646 1.9134 30.3309 1.9134 29.7679L1.9134 27.5138C3.97901 28.4528 6.2331 28.9223 8.48671 28.8289 10.7403 28.9223 12.9939 28.4528 15.06 27.5138L15.06 29.7679C15.06 30.3309 12.7124 31.646 8.48671 31.646ZM8.48671 26.9508C4.26101 26.9508 1.9134 25.6357 1.9134 25.0727L1.9134 22.8185C3.97901 23.7576 6.2331 24.2271 8.48671 24.1337 10.7403 24.2271 12.9939 23.7576 15.06 22.8185L15.06 25.0727C15.06 25.6357 12.7124 26.9508 8.48671 26.9508ZM15.06 20.3775C15.06 20.9405 12.7124 22.2556 8.48671 22.2556 4.26101 22.2556 1.9134 20.9405 1.9134 20.3775 1.9134 20.1895 2.47692 19.5319 3.97901 19.0624 6.70262 20.753 10.1768 20.753 12.8999 19.0624 14.4965 19.5319 15.06 20.1895 15.06 20.3775Z" stroke="#3494BA" stroke-width="0.117385" fill="#4A7090" transform="matrix(1 0 0 1.01754 27.27 534)"/>
        <path d="M28.2067 26.0118C23.981 26.0118 19.7553 27.3263 19.7553 29.7679L19.7553 53.2441C19.7553 55.6851 23.981 57.0002 28.2067 57.0002 32.4324 57.0002 36.6581 55.6851 36.6581 53.2441L36.6581 29.7679C36.6581 27.3263 32.4324 26.0118 28.2067 26.0118ZM28.2067 55.1221C23.981 55.1221 21.6334 53.807 21.6334 53.2441L21.6334 50.9899C23.6989 51.9289 25.9531 52.3984 28.2067 52.305 30.4603 52.3984 32.7138 51.9289 34.78 50.9899L34.78 53.2441C34.78 53.807 32.4324 55.1221 28.2067 55.1221ZM28.2067 50.4269C23.981 50.4269 21.6334 49.1118 21.6334 48.5488L21.6334 46.2947C23.6989 47.2337 25.9531 47.7032 28.2067 47.6098 30.4603 47.7032 32.7138 47.2337 34.78 46.2947L34.78 48.5488C34.78 49.1118 32.4324 50.4269 28.2067 50.4269ZM28.2067 45.7317C23.981 45.7317 21.6334 44.4166 21.6334 43.8536L21.6334 41.5994C23.6989 42.5385 25.9531 43.008 28.2067 42.9146 30.4603 43.008 32.7138 42.5385 34.78 41.5994L34.78 43.8536C34.78 44.4166 32.4324 45.7317 28.2067 45.7317ZM28.2067 41.0365C23.981 41.0365 21.6334 39.7213 21.6334 39.1584L21.6334 36.9042C23.6989 37.8433 25.9531 38.3128 28.2067 38.2193 30.4603 38.3128 32.7138 37.8433 34.78 36.9042L34.78 39.1584C34.78 39.7213 32.4324 41.0365 28.2067 41.0365ZM28.2067 36.3413C23.981 36.3413 21.6334 35.0261 21.6334 34.4632L21.6334 32.209C23.6989 33.148 25.9531 33.6176 28.2067 33.5241 30.4603 33.6176 32.7138 33.148 34.78 32.209L34.78 34.4632C34.78 35.0261 32.4324 36.3413 28.2067 36.3413ZM28.2067 31.646C23.981 31.646 21.6334 30.3309 21.6334 29.7679 21.6334 29.2044 23.981 27.8899 28.2067 27.8899 32.4324 27.8899 34.78 29.2044 34.78 29.7679 34.78 30.3309 32.4324 31.646 28.2067 31.646Z" stroke="#3494BA" stroke-width="0.117385" fill="#4A7090" transform="matrix(1 0 0 1.01754 27.27 534)"/>
        <path d="M47.9266 30.707C43.7009 30.707 39.4752 32.0215 39.4752 34.4632L39.4752 53.2441C39.4752 55.6851 43.7009 57.0002 47.9266 57.0002 52.1523 57.0002 56.378 55.6851 56.378 53.2441L56.378 34.4632C56.378 32.0215 52.1523 30.707 47.9266 30.707ZM47.9266 55.1221C43.7009 55.1221 41.3533 53.807 41.3533 53.2441L41.3533 50.9899C43.4188 51.9289 45.673 52.3984 47.9266 52.305 50.1802 52.3984 52.4338 51.9289 54.4999 50.9899L54.4999 53.2441C54.4999 53.807 52.1523 55.1221 47.9266 55.1221ZM47.9266 50.4269C43.7009 50.4269 41.3533 49.1118 41.3533 48.5488L41.3533 46.2947C43.4188 47.2337 45.673 47.7032 47.9266 47.6098 50.1802 47.7032 52.4338 47.2337 54.4999 46.2947L54.4999 48.5488C54.4999 49.1118 52.1523 50.4269 47.9266 50.4269ZM47.9266 45.7317C43.7009 45.7317 41.3533 44.4166 41.3533 43.8536L41.3533 41.5994C43.4188 42.5385 45.673 43.008 47.9266 42.9146 50.1802 43.008 52.4338 42.5385 54.4999 41.5994L54.4999 43.8536C54.4999 44.4166 52.1523 45.7317 47.9266 45.7317ZM47.9266 41.0365C43.7009 41.0365 41.3533 39.7213 41.3533 39.1584L41.3533 36.9042C43.4188 37.8433 45.673 38.3128 47.9266 38.2193 50.1802 38.3128 52.4338 37.8433 54.4999 36.9042L54.4999 39.1584C54.4999 39.7213 52.1523 41.0365 47.9266 41.0365ZM47.9266 36.3413C43.7009 36.3413 41.3533 35.0261 41.3533 34.4632 41.3533 33.8996 43.7009 32.5851 47.9266 32.5851 52.1523 32.5851 54.4999 33.8996 54.4999 34.4632 54.4999 35.0261 52.1523 36.3413 47.9266 36.3413Z" stroke="#3494BA" stroke-width="0.117385" fill="#4A7090" transform="matrix(1 0 0 1.01754 27.27 534)"/>
        <path d="M47.6445 24.4152 36.6581 13.4281 29.1457 20.9405 24.1684 15.9638 22.8539 17.2783 29.1457 23.5701 36.6581 16.0578 46.33 25.7297Z" stroke="#3494BA" stroke-width="0.117385" fill="#4A7090" transform="matrix(1 0 0 1.01754 27.27 534)"/>
        <path d="M18.166 12.6042 19.4939 11.2763 22.2826 14.065 20.9548 15.3929Z" stroke="#3494BA" stroke-width="0.117385" fill="#4A7090" transform="matrix(1 0 0 1.01754 27.27 534)"/>
    </g>
</svg>