<svg
    viewBox="0 0 319 257"
    xmlns="http://www.w3.org/2000/svg"
    xmlns:xlink="http://www.w3.org/1999/xlink"
    overflow="visible"
    preserveAspectRatio="xMaxYMax meet">
    
    <defs>
        <clipPath id="clip0">
            <rect x="3907" y="76" width="319" height="257"/>
        </clipPath>
    </defs>
    
    <g clip-path="url(#clip0)" transform="translate(-3907 -76)">
        <path d="M3937 76 3937 191 3970 173.355 3970 76 3937 76Z" fill="#FFFFFF" fill-rule="evenodd"/>
        <rect x="3937" y="193" width="89" height="36.0001" fill="#FFFFFF"/>
        <rect x="4019" y="76" width="110" height="36.0001" fill="#FFFFFF"/>
        <path d="M4091 229 4055 229 4055 130.705 4091 113 4091 229Z" fill="#FFFFFF" fill-rule="evenodd"/>
        <path d="M4157 93.6773 4157 229 4192 229 4192 76 4157 93.6773Z" fill="#FFFFFF" fill-rule="evenodd"/>
        <path 
            d="M4208.57 300.724C4215.54 300.724 4220.77 306.103 4220.77 313.276 4198.11 313.276 4198.11 313.276 4198.11 313.276 4198.11 306.103 4201.6 300.724 4208.57 300.724M4226 315.069C4226 304.31 4219.03 297.138 4208.57 297.138 4199.85 297.138 4192.88 304.31 4192.88 315.069 4192.88 325.828 4199.85 333 4208.57 333 4215.54 333 4220.77 331.207 4224.26 325.828 4220.77 324.035 4220.77 324.035 4220.77 324.035 4217.28 327.621 4213.8 329.414 4208.57 329.414 4201.6 329.414 4198.11 324.035 4198.11 316.862 4226 316.862 4226 316.862 4226 316.862 4226 316.862 4226 315.069 4226 315.069M4173.71 333C4189.39 297.138 4189.39 297.138 4189.39 297.138 4184.16 297.138 4184.16 297.138 4184.16 297.138 4171.96 327.621 4171.96 327.621 4171.96 327.621 4158.02 297.138 4158.02 297.138 4158.02 297.138 4152.79 297.138 4152.79 297.138 4152.79 297.138 4168.48 333 4168.48 333 4168.48 333L4173.71 333ZM4140.58 281C4140.58 333 4140.58 333 4140.58 333 4152.79 333 4152.79 333 4152.79 333 4152.79 329.414 4152.79 329.414 4152.79 329.414 4145.81 329.414 4145.81 329.414 4145.81 329.414 4145.81 281 4145.81 281 4145.81 281L4140.58 281ZM4114.44 329.414C4107.46 329.414 4102.23 324.035 4102.23 315.069 4102.23 306.103 4107.46 300.724 4114.44 300.724 4123.15 300.724 4126.64 306.103 4126.64 315.069 4126.64 324.035 4123.15 329.414 4114.44 329.414M4114.44 333C4124.9 333 4131.87 325.828 4131.87 315.069 4131.87 304.31 4124.9 297.138 4114.44 297.138 4103.98 297.138 4097.01 304.31 4097.01 315.069 4097.01 325.828 4103.98 333 4114.44 333M4084.8 320.448C4084.8 325.828 4081.32 329.414 4074.34 329.414 4069.11 329.414 4065.63 327.621 4062.14 324.035 4058.66 327.621 4058.66 327.621 4058.66 327.621 4062.14 331.207 4069.11 333 4074.34 333 4083.06 333 4090.03 327.621 4090.03 320.448 4090.03 311.483 4083.06 307.897 4076.09 306.103 4072.6 304.31 4072.6 304.31 4072.6 304.31 4069.11 302.517 4063.89 300.724 4063.89 295.345 4063.89 289.965 4069.11 286.379 4074.34 286.379 4079.57 286.379 4083.06 288.172 4086.55 291.759 4088.29 288.172 4088.29 288.172 4088.29 288.172 4084.8 284.586 4081.32 282.793 4074.34 282.793 4065.63 282.793 4058.66 288.172 4058.66 295.345 4058.66 304.31 4063.89 306.103 4070.86 309.69 4074.34 309.69 4074.34 309.69 4074.34 309.69 4079.57 311.483 4084.8 315.069 4084.8 320.448M4029.02 324.035C4029.02 327.621 4027.28 329.414 4022.05 329.414 4018.56 329.414 4016.82 329.414 4013.33 327.621 4011.59 329.414 4011.59 329.414 4011.59 329.414 4013.33 333 4018.56 333 4022.05 333 4030.77 333 4034.25 329.414 4034.25 324.035 4034.25 316.862 4030.77 315.069 4025.54 313.276 4022.05 311.483 4022.05 311.483 4022.05 311.483 4018.56 311.483 4016.82 309.69 4016.82 306.103 4016.82 302.517 4018.56 300.724 4023.79 300.724 4025.54 300.724 4029.02 300.724 4032.51 302.517 4034.25 298.931 4034.25 298.931 4034.25 298.931 4030.77 297.138 4027.28 297.138 4022.05 297.138 4016.82 297.138 4011.59 300.724 4011.59 306.103 4011.59 311.483 4015.08 315.069 4020.31 316.862 4023.79 316.862 4023.79 316.862 4023.79 316.862 4027.28 318.655 4029.02 320.448 4029.02 324.035M4009.85 282.793C4004.62 282.793 4004.62 282.793 4004.62 282.793 3999.39 297.138 3999.39 297.138 3999.39 297.138 4004.62 297.138 4004.62 297.138 4004.62 297.138L4009.85 282.793ZM3995.9 300.724C3995.9 297.138 3995.9 297.138 3995.9 297.138 3987.19 297.138 3987.19 297.138 3987.19 297.138 3987.19 286.379 3987.19 286.379 3987.19 286.379 3981.96 286.379 3981.96 286.379 3981.96 286.379 3981.96 297.138 3981.96 297.138 3981.96 297.138 3973.24 297.138 3973.24 297.138 3973.24 297.138 3973.24 300.724 3973.24 300.724 3973.24 300.724 3981.96 300.724 3981.96 300.724 3981.96 300.724 3981.96 333 3981.96 333 3981.96 333 3987.19 333 3987.19 333 3987.19 333 3987.19 300.724 3987.19 300.724 3987.19 300.724L3995.9 300.724ZM3954.07 300.724C3961.04 300.724 3964.52 306.103 3964.52 313.276 3941.86 313.276 3941.86 313.276 3941.86 313.276 3941.86 306.103 3947.09 300.724 3954.07 300.724M3969.75 315.069C3969.75 304.31 3962.78 297.138 3954.07 297.138 3943.61 297.138 3936.63 304.31 3936.63 315.069 3936.63 325.828 3943.61 333 3954.07 333 3959.3 333 3966.27 331.207 3968.01 325.828 3964.52 324.035 3964.52 324.035 3964.52 324.035 3962.78 327.621 3959.3 329.414 3954.07 329.414 3947.09 329.414 3941.86 324.035 3941.86 316.862 3969.75 316.862 3969.75 316.862 3969.75 316.862 3969.75 316.862 3969.75 315.069 3969.75 315.069M3934.89 329.414C3910.49 329.414 3910.49 329.414 3910.49 329.414 3910.49 281 3910.49 281 3910.49 281 3907 281 3907 281 3907 281 3907 333 3907 333 3907 333 3934.89 333 3934.89 333 3934.89 333L3934.89 329.414Z"
            fill="#FFFFFF"
            fill-rule="evenodd"/>
    </g>
</svg>