<svg
viewbox="0 0 50 47"
xmlns="http://www.w3.org/2000/svg"
xmlns:xlink="http://www.w3.org/1999/xlink"
overflow="visible"
preserveAspectRatio="xMaxYMax meet">

    <defs>
        <clipPath id="clip0">
            <rect
            x="7"
            y="259"
            width="50"
            height="47"/>
        </clipPath>

        <clipPath id="clip1">
            <rect
            x="7"
            y="260"
            width="49"
            height="45"/>
        </clipPath>

        <clipPath id="clip2">
            <rect
            x="6"
            y="260"
            width="50"
            height="45"/>
        </clipPath>
    </defs>

    <g clip-path="url(#clip0)" transform="translate(-7 -259)">
        <g clip-path="url(#clip1)">
            <g clip-path="url(#clip2)">
                <path
                d="M54.4148 13.1572C54.9686 13.1779 55.4016 13.6419 55.3841 14.1956L55.3841 42.796C55.3702 43.3254 54.9443 43.7513 54.4148 43.7652L45.9688 43.7652 45.9688 51.3113 38.9295 44.1134 38.5224 43.698 12.046 43.698C11.5224 43.7097 11.0884 43.2945 11.0768 42.7708 11.0765 42.7568 11.0765 42.7428 11.0768 42.7288L11.0768 14.1271C11.0907 13.5976 11.5166 13.1717 12.046 13.1579L54.4148 13.1579M54.4148 11.7733 12.046 11.7733C10.7517 11.7868 9.70571 12.8328 9.69221 14.1271L9.69221 42.7267C9.68148 44.0159 10.7179 45.0698 12.0071 45.0806 12.0201 45.0806 12.0331 45.0806 12.046 45.0806L37.9381 45.0806 47.3534 54.7035 47.3534 45.1498 54.4148 45.1498C55.7092 45.1363 56.7552 44.0903 56.7687 42.796L56.7687 14.1963C56.7849 12.8784 55.7327 11.7953 54.4148 11.7733Z"
                stroke="#3494BA"
                stroke-width="0.692337"
                transform="matrix(1.0111 0 -0 1 -2.15449 249.092)"/>

                <path
                d="M41.5381 27.692 33.9227 27.692 33.9227 20.0767 32.5381 20.0767 32.5381 27.692 24.9228 27.692 24.9228 29.0766 32.5381 29.0766 32.5381 36.6919 33.9227 36.6919 33.9227 29.0766 41.5381 29.0766 41.5381 27.692Z"
                stroke="#3494BA"
                stroke-width="0.692337"
                transform="matrix(1.0111 0 -0 1 -2.15449 249.092)"/>
            </g>
        </g>
    </g>
</svg>