<svg
    viewbox="0 0 25 25"
    xmlns="http://www.w3.org/2000/svg"
    xmlns:xlink="http://www.w3.org/1999/xlink"
    overflow="visible"
    preserveAspectRatio="xMaxYMax meet">
    
    <defs>
        <clipPath id="clip0">
            <rect x="893" y="56" width="25" height="25"/>
        </clipPath>
    </defs>
    
    <g clip-path="url(#clip0)" transform="translate(-893 -56)">
        <path
            d="M906.5 57.5001C900.421 57.5001 895.5 62.6448 895.5 69.0001 895.5 75.3553 900.421 80.5001 906.5 80.5001 912.579 80.5001 917.5 75.3553 917.5 69.0001 917.5 62.6448 912.579 57.5001 906.5 57.5001ZM906.5 77.4737C905.69 77.4737 905.053 76.808 905.053 75.9606 905.053 75.1132 905.69 74.4474 906.5 74.4474 907.311 74.4474 907.947 75.1132 907.947 75.9606 907.947 76.808 907.311 77.4737 906.5 77.4737ZM907.368 70.4527C907.368 71.2395 907.368 73.2369 907.368 73.2369L905.632 73.2369 905.632 68.6974 906.5 68.6974C908.44 68.6974 909.684 67.5172 909.684 65.6711 909.684 63.7645 908.324 62.3422 906.5 62.3422 904.503 62.3422 903.316 63.583 903.316 65.6711L901.579 65.6711C901.579 62.5843 903.547 60.5264 906.5 60.5264 909.25 60.5264 911.421 62.7961 911.421 65.6711 911.421 68.2435 909.8 70.0895 907.368 70.4527Z"
            stroke="#FFFFFF"
            stroke-miterlimit="8"
            fill="#FFFFFF"
            fill-rule="evenodd"/>
    </g>
</svg>