<svg
viewport="0 0 65 51"
xmlns="http://www.w3.org/2000/svg"
xmlns:xlink="http://www.w3.org/1999/xlink"
overflow="visible"
preserveAspectRatio="xMaxYMax meet">

    <defs>
        <clipPath id="clip0">
            <rect x="1211" y="218" width="65" height="51"/>
        </clipPath>

        <clipPath id="clip1">
            <rect x="1212" y="219" width="63" height="49"/>
        </clipPath>

        <clipPath id="clip2">
            <rect x="1212" y="219" width="63" height="49"/>
        </clipPath>
    </defs>

    <g clip-path="url(#clip0)" transform="translate(-1211 -218)">
        <g clip-path="url(#clip1)">
            <g clip-path="url(#clip2)">
                <path
                d="M38.6221 42.5308C38.6914 42.993 38.6914 43.463 38.6221 43.9252L47.783 43.9252C47.7138 43.463 47.7138 42.993 47.783 42.5308Z"
                stroke="#3494BA"
                stroke-width="0.697262"
                transform="matrix(1 0 -0 1.00397 1209.99 210.029)"/>

                <path
                d="M2.7889 43.9252 8.75995 43.9252C8.69071 43.463 8.69071 42.993 8.75995 42.5308L4.18336 42.5308 4.18336 11.1556 62.7503 11.1556 62.7503 42.5308 58.1333 42.5308C58.203 42.993 58.203 43.463 58.1333 43.9252L64.1448 43.9252 64.1448 9.76116 2.7889 9.76116Z"
                stroke="#3494BA"
                stroke-width="0.697262"
                transform="matrix(1 0 -0 1.00397 1209.99 210.029)"/>

                <path 
                d="M19.1103 42.5308C19.1795 42.993 19.1795 43.463 19.1103 43.9252L28.2718 43.9252C28.2393 43.6968 28.2223 43.4664 28.2209 43.2357 28.2226 42.9998 28.2403 42.7643 28.2739 42.5308Z"
                stroke="#3494BA"
                stroke-width="0.697262"
                transform="matrix(1 0 -0 1.00397 1209.99 210.029)"/>

                <path 
                d="M8.43086 50.2038 8.36113 50.2038C6.82245 50.2076 5.57606 51.454 5.57223 52.9927L6.96668 57.176 20.9049 57.176 22.2994 52.9927C22.2952 51.4542 21.049 50.2079 19.5105 50.2038L19.4408 50.2038C19.1237 48.9638 18.0013 48.1004 16.7216 48.1121L11.1438 48.1121C9.8737 48.1249 8.76629 48.9787 8.43086 50.2038ZM9.76883 50.5977C9.93101 49.9652 10.4958 49.5192 11.1486 49.5079L16.7265 49.5079C17.359 49.495 17.9195 49.9136 18.0867 50.5238L18.3398 51.5982 19.514 51.5982C20.2101 51.599 20.7991 52.1132 20.8938 52.803L19.8995 55.7781 7.97278 55.7781 6.98132 52.803C7.07601 52.1132 7.66495 51.599 8.36113 51.5982L9.4767 51.5982Z"
                stroke="#3494BA"
                stroke-width="0.697262"
                transform="matrix(1 0 -0 1.00397 1209.99 210.029)"/>

                <path
                d="M27.9427 50.2038 27.873 50.2038C26.3343 50.2076 25.0879 51.454 25.0841 52.9927L26.4786 57.176 40.4161 57.176 41.8106 52.9927C41.8067 51.454 40.5604 50.2076 39.0216 50.2038 38.6535 48.9688 37.5214 48.1197 36.2327 48.1121L30.6549 48.1121C29.3851 48.1253 28.2781 48.979 27.9427 50.2038ZM29.2835 50.5977C29.4455 49.9651 30.0104 49.5189 30.6633 49.5079L36.2411 49.5079C36.9073 49.5211 37.4897 49.9606 37.6851 50.5977L37.9793 51.5982 39.0251 51.5982C39.7216 51.5987 40.3109 52.113 40.4056 52.803L39.4114 55.7781 27.4846 55.7781 26.4946 52.803C26.5893 52.113 27.1786 51.5987 27.8751 51.5982L28.9907 51.5982Z"
                stroke="#3494BA"
                stroke-width="0.697262"
                transform="matrix(1 0 -0 1.00397 1209.99 210.029)"/>

                <path
                d="M47.4546 50.2038 47.3849 50.2038C45.8462 50.2076 44.5998 51.454 44.596 52.9927L45.9904 57.176 59.928 57.176 61.3224 52.9927C61.3186 51.454 60.0722 50.2076 58.5335 50.2038 58.1654 48.9688 57.0332 48.1197 55.7446 48.1121L50.1668 48.1121C48.8969 48.125 47.7898 48.9789 47.4546 50.2038ZM48.7919 50.5977C48.9543 49.9652 49.5194 49.5191 50.1724 49.5079L55.7502 49.5079C56.4186 49.5183 57.0041 49.9585 57.1997 50.5977L57.4946 51.5982 58.5405 51.5982C59.2369 51.5987 59.8262 52.113 59.921 52.803L58.9226 55.7781 46.993 55.7781 46.0016 52.803C46.0963 52.113 46.6856 51.5987 47.3821 51.5982L48.4976 51.5982Z"
                stroke="#3494BA"
                stroke-width="0.697262"
                transform="matrix(1 0 -0 1.00397 1209.99 210.029)"/>

                <path
                d="M13.9362 47.0683C16.054 47.0683 17.7709 45.3515 17.7709 43.2336 17.7709 41.1157 16.054 39.3988 13.9362 39.3988 11.8183 39.3988 10.1014 41.1157 10.1014 43.2336 10.1014 45.3515 11.8183 47.0683 13.9362 47.0683ZM13.9362 40.7975C15.2839 40.7975 16.3764 41.89 16.3764 43.2378 16.3764 44.5855 15.2839 45.6781 13.9362 45.6781 12.5884 45.6781 11.4959 44.5855 11.4959 43.2378 11.4959 41.89 12.5884 40.7975 13.9362 40.7975Z"
                stroke="#3494BA"
                stroke-width="0.697262"
                transform="matrix(1 0 -0 1.00397 1209.99 210.029)"/>

                <path
                d="M33.448 47.0683C35.5659 47.0683 37.2828 45.3515 37.2828 43.2336 37.2828 41.1157 35.5659 39.3988 33.448 39.3988 31.3301 39.3988 29.6133 41.1157 29.6133 43.2336 29.6133 45.3515 31.3301 47.0683 33.448 47.0683ZM33.448 40.7975C34.7958 40.7975 35.8883 41.89 35.8883 43.2378 35.8883 44.5855 34.7958 45.6781 33.448 45.6781 32.1003 45.6781 31.0077 44.5855 31.0077 43.2378 31.0077 41.89 32.1003 40.7975 33.448 40.7975Z"
                stroke="#3494BA"
                stroke-width="0.697262"
                transform="matrix(1 0 -0 1.00397 1209.99 210.029)"/>

                <path
                d="M52.9599 47.0683C55.0778 47.0683 56.7946 45.3515 56.7946 43.2336 56.7946 41.1157 55.0778 39.3988 52.9599 39.3988 50.842 39.3988 49.1251 41.1157 49.1251 43.2336 49.1251 45.3515 50.842 47.0683 52.9599 47.0683ZM52.9599 40.7975C54.3076 40.7975 55.4002 41.89 55.4002 43.2378 55.4002 44.5855 54.3076 45.6781 52.9599 45.6781 51.6122 45.6781 50.5196 44.5855 50.5196 43.2378 50.5196 41.89 51.6122 40.7975 52.9599 40.7975Z"
                stroke="#3494BA"
                stroke-width="0.697262"
                transform="matrix(1 0 -0 1.00397 1209.99 210.029)"/>
            </g>
        </g>
    </g>
</svg>