<svg width="58" height="58" xmlns="http://www.w3.org/2000/svg" xmlns:xlink="http://www.w3.org/1999/xlink" overflow="visible" preserveAspectRatio="xMaxYMax meet">
    <defs>
        <clipPath id="clip0">
            <rect x="14" y="383" width="58" height="58"/>
        </clipPath>
    </defs>
    <g clip-path="url(#clip0)" transform="translate(-14 -383)">
        <path d="M33.5342 422.387 31.8142 422.957C31.9999 423.518 32.2301 424.069 32.4984 424.594L34.1124 423.771C33.8858 423.327 33.6919 422.861 33.5342 422.387Z" stroke="#3494BA" stroke-width="0.90625" fill="#4A7090"/>
        <path d="M51.3076 413.738C52.3942 415.373 52.9688 417.279 52.9688 419.25 52.9688 424.746 48.4964 429.219 43 429.219 39.8 429.219 36.7732 427.665 34.9008 425.065L33.43 426.123C35.6413 429.197 39.2191 431.031 43 431.031 49.496 431.031 54.7812 425.746 54.7812 419.25 54.7812 416.921 54.1016 414.668 52.8174 412.735Z" stroke="#3494BA" stroke-width="0.90625" fill="#4A7090"/>
        <path d="M68.375 396.594C66.8761 396.594 65.6562 397.814 65.6562 399.312 65.6562 399.827 65.8085 400.304 66.0577 400.714L61.1341 406.732C60.8468 406.629 60.5414 406.562 60.2188 406.562 60.0855 406.562 59.9578 406.583 59.8291 406.601L54.61 401.382 49.7951 405.127C49.3936 404.893 48.9341 404.75 48.4375 404.75 48.3668 404.75 48.3007 404.765 48.2309 404.771 48.2273 404.769 48.2236 404.768 48.22 404.766L47.4252 398.406 38.5748 398.406 37.7818 404.755C37.3359 404.918 36.8901 405.104 36.446 405.315L31.39 401.382 25.1324 407.64 29.0646 412.696C29.0401 412.749 29.0229 412.801 28.9984 412.854L20.3329 409.387C20.3347 409.352 20.3438 409.318 20.3438 409.281 20.3438 407.782 19.1239 406.562 17.625 406.562 16.1261 406.562 14.9062 407.782 14.9062 409.281 14.9062 410.78 16.1261 412 17.625 412 18.4361 412 19.1575 411.636 19.6559 411.07L27.4025 414.169 22.1562 414.825 22.1562 423.675 28.5054 424.469C28.6677 424.914 28.8543 425.36 29.0646 425.804L25.1324 430.86 31.39 437.118 36.446 433.185C36.8892 433.396 37.335 433.582 37.7818 433.745L38.5748 440.094 47.4252 440.094 48.2182 433.745C48.6641 433.582 49.1099 433.396 49.554 433.185L54.61 437.118 60.8676 430.86 56.9354 425.804C57.1457 425.361 57.3323 424.915 57.4946 424.469L63.8438 423.675 63.8438 414.825 57.4946 414.031C57.3323 413.586 57.1457 413.14 56.9354 412.696L58.1942 411.077C58.6926 411.639 59.4113 412 60.2188 412 61.7177 412 62.9375 410.78 62.9375 409.281 62.9375 408.767 62.7862 408.29 62.536 407.879L67.4597 401.861C67.747 401.965 68.0524 402.031 68.375 402.031 69.8739 402.031 71.0938 400.811 71.0938 399.312 71.0938 397.814 69.8739 396.594 68.375 396.594ZM17.625 410.188C17.1257 410.188 16.7188 409.781 16.7188 409.281 16.7188 408.781 17.1257 408.375 17.625 408.375 18.1243 408.375 18.5312 408.781 18.5312 409.281 18.5312 409.781 18.1243 410.188 17.625 410.188ZM58.1733 407.51C58.0437 407.659 57.9314 407.823 57.8362 407.999L51.1046 406.963C51.0747 406.805 51.0276 406.655 50.9714 406.508L54.4586 403.796ZM49.3438 407.469C49.3438 407.969 48.9368 408.375 48.4375 408.375 47.9382 408.375 47.5312 407.969 47.5312 407.469 47.5312 406.969 47.9382 406.562 48.4375 406.562 48.9368 406.562 49.3438 406.969 49.3438 407.469ZM27.5448 407.79 31.5405 403.795 36.2412 407.451 36.7559 407.183C37.461 406.817 38.1769 406.518 38.8838 406.294L39.4366 406.119 40.1752 400.219 45.8248 400.219 46.4945 405.573C46.016 406.063 45.7188 406.731 45.7188 407.469 45.7188 408.231 46.0359 408.918 46.5425 409.412L45.5719 411.515C44.7617 411.246 43.899 411.094 43 411.094 39.8562 411.094 37.1275 412.884 35.7663 415.496L33.9303 414.79C33.9312 414.766 33.9375 414.743 33.9375 414.719 33.9375 413.22 32.7177 412 31.2188 412 31.0919 412 30.9704 412.021 30.8481 412.037ZM36.8185 417.844 40.2885 419.178C40.2876 419.203 40.2812 419.226 40.2812 419.25 40.2812 420.749 41.5011 421.969 43 421.969 44.4989 421.969 45.7188 420.749 45.7188 419.25 45.7188 418.488 45.4016 417.801 44.895 417.307L46.451 413.935C48.1901 415.068 49.3438 417.025 49.3438 419.25 49.3438 422.747 46.4981 425.594 43 425.594 39.5019 425.594 36.6562 422.747 36.6562 419.25 36.6562 418.766 36.7152 418.297 36.8185 417.844ZM43 418.344C43.4993 418.344 43.9062 418.75 43.9062 419.25 43.9062 419.75 43.4993 420.156 43 420.156 42.5007 420.156 42.0938 419.75 42.0938 419.25 42.0938 418.75 42.5007 418.344 43 418.344ZM43.2456 416.556C43.1631 416.548 43.0843 416.531 43 416.531 42.1753 416.531 41.4449 416.907 40.9455 417.489L37.4692 416.152C38.5576 414.218 40.6274 412.906 43 412.906 43.628 412.906 44.2334 413.001 44.8071 413.172ZM31.2188 413.812C31.7181 413.812 32.125 414.219 32.125 414.719 32.125 415.219 31.7181 415.625 31.2188 415.625 30.7194 415.625 30.3125 415.219 30.3125 414.719 30.3125 414.219 30.7194 413.812 31.2188 413.812ZM55.0658 413.007C55.4328 413.713 55.7319 414.428 55.9548 415.134L56.1297 415.688 62.0312 416.425 62.0312 422.075 56.1307 422.812 55.9557 423.365C55.7319 424.07 55.4328 424.785 55.0667 425.492L54.7994 426.008 58.4552 430.709 54.4595 434.704 49.7588 431.048 49.2441 431.316C48.539 431.682 47.8231 431.981 47.1162 432.205L46.5634 432.38 45.8248 438.281 40.1752 438.281 39.4375 432.381 38.8847 432.206C38.1778 431.982 37.4619 431.683 36.7568 431.317L36.2421 431.049 31.5414 434.705 27.5457 430.71 31.2015 426.009 30.9342 425.493C30.5672 424.787 30.2681 424.072 30.0452 423.366L29.8702 422.812 23.9688 422.075 23.9688 416.425 28.7429 415.829C29.1688 416.775 30.1158 417.438 31.2188 417.438 32.0434 417.438 32.7739 417.061 33.2732 416.48L35.1183 417.189C34.9453 417.849 34.8438 418.537 34.8438 419.25 34.8438 423.748 38.5032 427.406 43 427.406 47.4968 427.406 51.1562 423.748 51.1562 419.25 51.1562 416.296 49.5721 413.712 47.215 412.28L48.1919 410.162C48.2744 410.17 48.3532 410.188 48.4375 410.188 49.4706 410.188 50.3597 409.602 50.8191 408.752L56.9698 409.699 54.7985 412.491ZM60.2188 410.188C59.7194 410.188 59.3125 409.781 59.3125 409.281 59.3125 408.781 59.7194 408.375 60.2188 408.375 60.7181 408.375 61.125 408.781 61.125 409.281 61.125 409.781 60.7181 410.188 60.2188 410.188ZM68.375 400.219C67.8757 400.219 67.4688 399.813 67.4688 399.312 67.4688 398.812 67.8757 398.406 68.375 398.406 68.8743 398.406 69.2812 398.812 69.2812 399.312 69.2812 399.813 68.8743 400.219 68.375 400.219Z" stroke="#3494BA" stroke-width="0.90625" fill="#4A7090"/>
        <path d="M37.0314 392.969 33.0312 392.969 33.0312 383.906 31.2188 383.906 31.2188 394.781 32.6561 394.781 27.5938 399.844 22.5314 394.781 23.9688 394.781 23.9688 387.531 22.1562 387.531 22.1562 392.969 18.1561 392.969 27.5938 402.406Z" stroke="#3494BA" stroke-width="0.90625" fill="#4A7090"/>
        <path d="M22.1562 383.906 23.9688 383.906 23.9688 385.719 22.1562 385.719Z" stroke="#3494BA" stroke-width="0.90625" fill="#4A7090"/>
        <path d="M52.9688 400.219 54.7812 400.219 54.7812 391.156 53.3439 391.156 58.4062 386.094 63.4686 391.156 62.0312 391.156 62.0312 396.594 63.8438 396.594 63.8438 392.969 67.8439 392.969 58.4062 383.531 48.9686 392.969 52.9688 392.969Z" stroke="#3494BA" stroke-width="0.90625" fill="#4A7090"/>
        <path d="M62.0312 398.406 63.8438 398.406 63.8438 400.219 62.0312 400.219Z" stroke="#3494BA" stroke-width="0.90625" fill="#4A7090"/>
    </g>
</svg>