<svg
    viewbox="0 0 25 25"
    xmlns="http://www.w3.org/2000/svg"
    xmlns:xlink="http://www.w3.org/1999/xlink"
    overflow="visible"
    preserveAspectRatio="xMaxYMax meet">
    
    <defs>
        <clipPath id="clip0">
            <rect x="900" y="49" width="25" height="25"/>
        </clipPath>
    </defs>
    
    <g clip-path="url(#clip0)" transform="translate(-900 -49)">
        <path
            d="M913 49C906.368 49 901 54.3684 901 61 901 67.6316 906.368 73 913 73 919.632 73 925 67.6316 925 61 925 54.3684 919.632 49 913 49ZM906.053 59.1053C906.053 58.0632 906.905 57.2105 907.947 57.2105 908.99 57.2105 909.842 58.0632 909.842 59.1053 909.842 60.1474 908.99 61 907.947 61 906.905 61 906.053 60.1474 906.053 59.1053ZM919.253 66.1158C917.8 68.0105 915.558 69.2105 913 69.2105 910.442 69.2105 908.2 68.0105 906.747 66.1158 906.684 66.0211 906.621 65.8947 906.621 65.7368 906.621 65.3895 906.905 65.1053 907.253 65.1053 907.474 65.1053 907.663 65.2 907.758 65.3579 908.958 66.9368 910.853 67.9158 913 67.9158 915.147 67.9158 917.01 66.9368 918.242 65.3579 918.368 65.2 918.558 65.1053 918.747 65.1053 919.095 65.1053 919.379 65.3895 919.379 65.7368 919.379 65.8947 919.316 66.0211 919.253 66.1158ZM918.053 61C917.01 61 916.158 60.1474 916.158 59.1053 916.158 58.0632 917.01 57.2105 918.053 57.2105 919.095 57.2105 919.947 58.0632 919.947 59.1053 919.947 60.1474 919.095 61 918.053 61Z"
            fill="#FFFFFF"
            fill-rule="evenodd"/>
    </g>
</svg>