<svg
viewport="0 0 55 54"
xmlns="http://www.w3.org/2000/svg"
xmlns:xlink="http://www.w3.org/1999/xlink"
overflow="visible"
preserveAspectRatio="xMaxYMax meet">
    <defs>
        <clipPath id="clip0">
            <rect x="3" y="270" width="55" height="54"/>
        </clipPath>

        <clipPath id="clip1">
            <rect x="3" y="271" width="54" height="53"/>
        </clipPath>

        <clipPath id="clip2">
            <rect x="3" y="271" width="54" height="53"/>
        </clipPath>
    </defs>

    <g clip-path="url(#clip0)" transform="translate(-3 -270)">
        <g clip-path="url(#clip1)">
            <g clip-path="url(#clip2)">
                <path 
                d="M59.3496 42.0676 56.5234 42.0676 56.5234 13.0993 59.3496 13.0993C59.7398 13.0993 60.0561 12.783 60.0561 12.3928 60.0561 12.0025 59.7398 11.6862 59.3496 11.6862L34.6206 11.6862 34.6206 8.86005C34.6206 8.46982 34.3043 8.15351 33.9141 8.15351 33.5238 8.15351 33.2075 8.46982 33.2075 8.86005L33.2075 11.6862 8.47851 11.6862C8.08829 11.6862 7.77197 12.0025 7.77197 12.3928 7.77197 12.783 8.08829 13.0993 8.47851 13.0993L11.3047 13.0993 11.3047 42.0676 8.47851 42.0676C8.08829 42.0676 7.77197 42.3839 7.77197 42.7741 7.77197 43.1643 8.08829 43.4807 8.47851 43.4807L32.2085 43.4807 19.6369 56.0522C19.3658 56.3329 19.3736 56.7801 19.6543 57.0512 19.9281 57.3157 20.3622 57.3157 20.636 57.0512L33.1955 44.4917C33.2019 44.4854 33.2075 44.4875 33.2075 44.4967L33.2075 59.0246C33.2075 59.4148 33.5238 59.7311 33.9141 59.7311 34.3043 59.7311 34.6206 59.4148 34.6206 59.0246L34.6206 44.4967C34.6206 44.4875 34.6263 44.4846 34.6326 44.4917L47.1921 57.0512C47.4728 57.3223 47.9201 57.3145 48.1912 57.0338 48.4556 56.7601 48.4556 56.326 48.1912 56.0522L35.6197 43.4807 59.3496 43.4807C59.7398 43.4807 60.0561 43.1643 60.0561 42.7741 60.0561 42.3839 59.7398 42.0676 59.3496 42.0676ZM12.7178 42.0676 12.7178 13.0993 55.1103 13.0993 55.1103 42.0676Z"
                stroke="#3494BA"
                stroke-width="0.706579"
                transform="matrix(1 0 -0 1.00016 -3.97002 263.403)"/>
            </g>
        </g>
    </g>
</svg>